<svg viewBox="0 0 18 18" fill="none" xmlns="http://www.w3.org/2000/svg">
  <path d="M2 3.75C2 3.33579 2.33579 3 2.75 3H15.25C15.6642 3 16 3.33579 16 3.75C16 4.16421 15.6642 4.5 15.25 4.5H2.75C2.33579 4.5 2 4.16421 2 3.75Z" fill="currentColor"/>
  <path d="M6 8.75C6 8.33579 6.33579 8 6.75 8H15.25C15.6642 8 16 8.33579 16 8.75C16 9.16421 15.6642 9.5 15.25 9.5H6.75C6.33579 9.5 6 9.16421 6 8.75Z" fill="currentColor"/>
  <path d="M2.75 13C2.33579 13 2 13.3358 2 13.75C2 14.1642 2.33579 14.5 2.75 14.5H15.25C15.6642 14.5 16 14.1642 16 13.75C16 13.3358 15.6642 13 15.25 13H2.75Z" fill="currentColor"/>
</svg>
