<svg viewBox="0 0 20 20" fill="currentColor" xmlns="http://www.w3.org/2000/svg">
<path fill-rule="evenodd" clip-rule="evenodd" d="M18 4.75C18 4.33579 17.6642 4 17.25 4H2.75C2.33579 4 2 4.33579 2 4.75C2 5.16421 2.33579 5.5 2.75 5.5H17.25C17.6642 5.5 18 5.16421 18 4.75ZM18 15.25C18 14.8358 17.6642 14.5 17.25 14.5H9.75C9.33579 14.5 9 14.8358 9 15.25C9 15.6642 9.33579 16 9.75 16H17.25C17.6642 16 18 15.6642 18 15.25Z"/>
<path fill-rule="evenodd" clip-rule="evenodd" d="M18 10C18 9.58579 17.6642 9.25 17.25 9.25H2.75C2.33579 9.25 2 9.58579 2 10C2 10.4142 2.33579 10.75 2.75 10.75H17.25C17.6642 10.75 18 10.4142 18 10Z"/>
</svg>
