<svg viewBox="0 0 18 18" fill="none" xmlns="http://www.w3.org/2000/svg">
  <path d="M2 3.75C2 3.33579 2.33579 3 2.75 3H15.25C15.6642 3 16 3.33579 16 3.75C16 4.16421 15.6642 4.5 15.25 4.5H2.75C2.33579 4.5 2 4.16421 2 3.75Z" fill="currentColor"/>
  <path d="M4.75 8C4.33579 8 4 8.33579 4 8.75C4 9.16421 4.33579 9.5 4.75 9.5H13.25C13.6642 9.5 14 9.16421 14 8.75C14 8.33579 13.6642 8 13.25 8H4.75Z" fill="currentColor"/>
  <path d="M2 13.75C2 13.3358 2.33579 13 2.75 13H15.25C15.6642 13 16 13.3358 16 13.75C16 14.1642 15.6642 14.5 15.25 14.5H2.75C2.33579 14.5 2 14.1642 2 13.75Z" fill="currentColor"/>
</svg>
