<svg viewBox="0 0 18 18" fill="none" xmlns="http://www.w3.org/2000/svg">
  <path d="M5.25 3.75C5.25 3.33579 5.58579 3 6 3H10.5C12.1569 3 13.5 4.34315 13.5 6C13.5 7.03565 12.9692 7.94738 12.1667 8.5C13.2423 9.03718 14 10.1377 14 11.4C14 13.3882 12.4882 15 10.5 15H6C5.58579 15 5.25 14.6642 5.25 14.25V3.75ZM7.5 7.5V12.75H10.5C11.3284 12.75 12 12.0784 12 11.25C12 10.4216 11.3284 9.75 10.5 9.75H9C8.58579 9.75 8.25 9.41421 8.25 9C8.25 8.58579 8.58579 8.25 9 8.25H10.5C11.3284 8.25 12 7.57843 12 6.75C12 5.92157 11.3284 5.25 10.5 5.25H7.5V7.5Z" fill="currentColor"/>
</svg>
