<svg viewBox="0 0 18 18" fill="none" xmlns="http://www.w3.org/2000/svg">
  <path d="M6.5 2C6.22386 2 6 2.22386 6 2.5V3H4.5C4.22386 3 4 3.22386 4 3.5C4 3.77614 4.22386 4 4.5 4H6H12H13.5C13.7761 4 14 3.77614 14 3.5C14 3.22386 13.7761 3 13.5 3H12V2.5C12 2.22386 11.7761 2 11.5 2H6.5Z" fill="currentColor"/>
  <path d="M5 5C5 4.72386 5.22386 4.5 5.5 4.5H12.5C12.7761 4.5 13 4.72386 13 5V14.5C13 15.3284 12.3284 16 11.5 16H6.5C5.67157 16 5 15.3284 5 14.5V5ZM7 6.5C7 6.22386 7.22386 6 7.5 6C7.77614 6 8 6.22386 8 6.5V13.5C8 13.7761 7.77614 14 7.5 14C7.22386 14 7 13.7761 7 13.5V6.5ZM10.5 6C10.2239 6 10 6.22386 10 6.5V13.5C10 13.7761 10.2239 14 10.5 14C10.7761 14 11 13.7761 11 13.5V6.5C11 6.22386 10.7761 6 10.5 6Z" fill="currentColor"/>
</svg>
