<svg viewBox="0 0 18 18" fill="none" xmlns="http://www.w3.org/2000/svg">
  <path d="M6.03033 4.21967C6.32322 4.51256 6.32322 4.98744 6.03033 5.28033L3.31066 8L6.03033 10.7197C6.32322 11.0126 6.32322 11.4874 6.03033 11.7803C5.73744 12.0732 5.26256 12.0732 4.96967 11.7803L1.71967 8.53033C1.42678 8.23744 1.42678 7.76256 1.71967 7.46967L4.96967 4.21967C5.26256 3.92678 5.73744 3.92678 6.03033 4.21967Z" fill="currentColor"/>
  <path d="M11.9697 4.21967C12.2626 3.92678 12.7374 3.92678 13.0303 4.21967L16.2803 7.46967C16.5732 7.76256 16.5732 8.23744 16.2803 8.53033L13.0303 11.7803C12.7374 12.0732 12.2626 12.0732 11.9697 11.7803C11.6768 11.4874 11.6768 11.0126 11.9697 10.7197L14.6893 8L11.9697 5.28033C11.6768 4.98744 11.6768 4.51256 11.9697 4.21967Z" fill="currentColor"/>
  <path d="M10.3536 3.14645C10.5488 3.34171 10.5488 3.65829 10.3536 3.85355L7.64645 6.56066C7.45118 6.75592 7.13459 6.75592 6.93934 6.56066C6.74408 6.36539 6.74408 6.04881 6.93934 5.85355L9.64645 3.14645C9.84171 2.95118 10.1583 2.95118 10.3536 3.14645Z" fill="currentColor"/>
  <path d="M10.3536 9.43934C10.5488 9.2441 10.5488 8.92751 10.3536 8.73225L7.64645 6.02513C7.45118 5.82987 7.13459 5.82987 6.93934 6.02513C6.74408 6.2204 6.74408 6.53698 6.93934 6.73225L9.64645 9.43934C9.84171 9.6346 10.1583 9.6346 10.3536 9.43934Z" fill="currentColor"/>
</svg>
