<svg viewBox="0 0 18 18" fill="none" xmlns="http://www.w3.org/2000/svg">
  <path d="M8.5 2C8.77614 2 9 2.22386 9 2.5V3.5C9 3.77614 8.77614 4 8.5 4C8.22386 4 8 3.77614 8 3.5V2.5C8 2.22386 8.22386 2 8.5 2Z" fill="currentColor"/>
  <path d="M11.364 3.636C11.5593 3.44074 11.8758 3.44074 12.0711 3.636L12.7782 4.34311C12.9735 4.53837 12.9735 4.85495 12.7782 5.05022C12.583 5.24548 12.2664 5.24548 12.0711 5.05022L11.364 4.34311C11.1687 4.14785 11.1687 3.83126 11.364 3.636Z" fill="currentColor"/>
  <path d="M13.5 8C13.7761 8 14 8.22386 14 8.5C14 8.77614 13.7761 9 13.5 9H12.5C12.2239 9 12 8.77614 12 8.5C12 8.22386 12.2239 8 12.5 8H13.5Z" fill="currentColor"/>
  <path d="M5.5 8C5.77614 8 6 8.22386 6 8.5C6 8.77614 5.77614 9 5.5 9H4.5C4.22386 9 4 8.77614 4 8.5C4 8.22386 4.22386 8 4.5 8H5.5Z" fill="currentColor"/>
  <path d="M4.92893 3.636C5.1242 3.44074 5.44078 3.44074 5.63604 3.636C5.8313 3.83126 5.8313 4.14785 5.63604 4.34311L4.92893 5.05022C4.73367 5.24548 4.41709 5.24548 4.22183 5.05022C4.02656 4.85495 4.02656 4.53837 4.22183 4.34311L4.92893 3.636Z" fill="currentColor"/>
  <path d="M8.5 6C6.567 6 5 7.567 5 9.5C5 10.8 5.6 11.95 6.55 12.7C7.1 13.15 7.5 13.75 7.5 14.5C7.5 15.3284 8.17157 16 9 16C9.82843 16 10.5 15.3284 10.5 14.5C10.5 13.75 10.9 13.15 11.45 12.7C12.4 11.95 13 10.8 13 9.5C13 7.567 11.433 6 8.5 6Z" fill="currentColor"/>
</svg>
