<svg viewBox="0 0 18 18" fill="none" xmlns="http://www.w3.org/2000/svg">
  <path d="M7 3C5.34315 3 4 4.34315 4 6C4 7.65685 5.34315 9 7 9H8V14C8 14.5523 8.44772 15 9 15C9.55228 15 10 14.5523 10 14V4H11V14C11 14.5523 11.4477 15 12 15C12.5523 15 13 14.5523 13 14V4C13 3.44772 12.5523 3 12 3H7Z" fill="currentColor"/>
  <path d="M2.21967 11.2197C1.92678 10.9268 1.92678 10.4519 2.21967 10.159L4.46967 7.90901C4.76256 7.61612 5.23744 7.61612 5.53033 7.90901C5.82322 8.2019 5.82322 8.67678 5.53033 8.96967L4.56066 9.93934H15.25C15.6642 9.93934 16 10.2751 16 10.6893C16 11.1036 15.6642 11.4393 15.25 11.4393H4.56066L5.53033 12.409C5.82322 12.7019 5.82322 13.1768 5.53033 13.4697C5.23744 13.7626 4.76256 13.7626 4.46967 13.4697L2.21967 11.2197Z" fill="currentColor"/>
</svg>
