<svg viewBox="0 0 18 18" fill="none" xmlns="http://www.w3.org/2000/svg">
  <path d="M7 3C5.34315 3 4 4.34315 4 6C4 7.65685 5.34315 9 7 9H8V14C8 14.5523 8.44772 15 9 15C9.55228 15 10 14.5523 10 14V4H11V14C11 14.5523 11.4477 15 12 15C12.5523 15 13 14.5523 13 14V4C13 3.44772 12.5523 3 12 3H7Z" fill="currentColor"/>
  <path d="M15.7803 11.2197C16.0732 10.9268 16.0732 10.4519 15.7803 10.159L13.5303 7.90901C13.2374 7.61612 12.7626 7.61612 12.4697 7.90901C12.1768 8.2019 12.1768 8.67678 12.4697 8.96967L13.4393 9.93934H2.75C2.33579 9.93934 2 10.2751 2 10.6893C2 11.1036 2.33579 11.4393 2.75 11.4393H13.4393L12.4697 12.409C12.1768 12.7019 12.1768 13.1768 12.4697 13.4697C12.7626 13.7626 13.2374 13.7626 13.5303 13.4697L15.7803 11.2197Z" fill="currentColor"/>
</svg>
