<svg viewBox="0 0 18 18" fill="none" xmlns="http://www.w3.org/2000/svg">
  <path d="M4.5 3C4.22386 3 4 3.22386 4 3.5V6.5C4 6.77614 4.22386 7 4.5 7H6.5C6.77614 7 7 6.77614 7 6.5V3.5C7 3.22386 6.77614 3 6.5 3H4.5Z" fill="currentColor"/>
  <path d="M9 4.75C9 4.33579 9.33579 4 9.75 4H13.25C13.6642 4 14 4.33579 14 4.75C14 5.16421 13.6642 5.5 13.25 5.5H9.75C9.33579 5.5 9 5.16421 9 4.75Z" fill="currentColor"/>
  <path d="M4.46967 9.46967C4.76256 9.17678 5.23744 9.17678 5.53033 9.46967L7 10.9393L8.46967 9.46967C8.76256 9.17678 9.23744 9.17678 9.53033 9.46967C9.82322 9.76256 9.82322 10.2374 9.53033 10.5303L8.06066 12L9.53033 13.4697C9.82322 13.7626 9.82322 14.2374 9.53033 14.5303C9.23744 14.8232 8.76256 14.8232 8.46967 14.5303L7 13.0607L5.53033 14.5303C5.23744 14.8232 4.76256 14.8232 4.46967 14.5303C4.17678 14.2374 4.17678 13.7626 4.46967 13.4697L5.93934 12L4.46967 10.5303C4.17678 10.2374 4.17678 9.76256 4.46967 9.46967Z" fill="currentColor"/>
  <path d="M13 12.5C13 12.2239 12.7761 12 12.5 12H11.75V11.25C11.75 10.9739 11.5261 10.75 11.25 10.75C10.9739 10.75 10.75 10.9739 10.75 11.25V12H10C9.72386 12 9.5 12.2239 9.5 12.5C9.5 12.7761 9.72386 13 10 13H10.75V13.75C10.75 14.0261 10.9739 14.25 11.25 14.25C11.5261 14.25 11.75 14.0261 11.75 13.75V13H12.5C12.7761 13 13 12.7761 13 12.5Z" fill="currentColor"/>
  <path d="M14 10C14.5523 10 15 10.4477 15 11V14C15 14.5523 14.5523 15 14 15H9C8.44772 15 8 14.5523 8 14V11C8 10.4477 8.44772 10 9 10H14Z" fill="currentColor" fill-opacity="0.2"/>
</svg>
