<svg viewBox="0 0 18 18" fill="none" xmlns="http://www.w3.org/2000/svg">
  <path d="M3 2.75C3 2.33579 3.33579 2 3.75 2C4.16421 2 4.5 2.33579 4.5 2.75V8.25H9V2.75C9 2.33579 9.33579 2 9.75 2C10.1642 2 10.5 2.33579 10.5 2.75V15.25C10.5 15.6642 10.1642 16 9.75 16C9.33579 16 9 15.6642 9 15.25V9.75H4.5V15.25C4.5 15.6642 4.16421 16 3.75 16C3.33579 16 3 15.6642 3 15.25V2.75Z" fill="currentColor"/>
  <path d="M13 11C12.4477 11 12 11.4477 12 12C12 12.5523 12.4477 13 13 13H13.5C13.7761 13 14 13.2239 14 13.5C14 13.7761 13.7761 14 13.5 14H13C12.4477 14 12 14.4477 12 15C12 15.5523 12.4477 16 13 16H13.5C14.6046 16 15.5 15.1046 15.5 14V13C15.5 11.8954 14.6046 11 13.5 11H13Z" fill="currentColor"/>
</svg>
