<svg viewBox="0 0 18 18" fill="none" xmlns="http://www.w3.org/2000/svg">
  <path d="M3 2.75C3 2.33579 3.33579 2 3.75 2C4.16421 2 4.5 2.33579 4.5 2.75V8.25H9V2.75C9 2.33579 9.33579 2 9.75 2C10.1642 2 10.5 2.33579 10.5 2.75V15.25C10.5 15.6642 10.1642 16 9.75 16C9.33579 16 9 15.6642 9 15.25V9.75H4.5V15.25C4.5 15.6642 4.16421 16 3.75 16C3.33579 16 3 15.6642 3 15.25V2.75Z" fill="currentColor"/>
  <path d="M14 11C12.8954 11 12 11.8954 12 13V14C12 15.1046 12.8954 16 14 16C15.1046 16 16 15.1046 16 14V13C16 11.8954 15.1046 11 14 11ZM13.5 13C13.5 12.7239 13.7239 12.5 14 12.5C14.2761 12.5 14.5 12.7239 14.5 13V14C14.5 14.2761 14.2761 14.5 14 14.5C13.7239 14.5 13.5 14.2761 13.5 14V13Z" fill="currentColor"/>
</svg>
