<svg viewBox="0 0 18 18" fill="none" xmlns="http://www.w3.org/2000/svg">
  <path d="M3 2.75C3 2.33579 3.33579 2 3.75 2C4.16421 2 4.5 2.33579 4.5 2.75V8.25H9V2.75C9 2.33579 9.33579 2 9.75 2C10.1642 2 10.5 2.33579 10.5 2.75V15.25C10.5 15.6642 10.1642 16 9.75 16C9.33579 16 9 15.6642 9 15.25V9.75H4.5V15.25C4.5 15.6642 4.16421 16 3.75 16C3.33579 16 3 15.6642 3 15.25V2.75Z" fill="currentColor"/>
  <path d="M12.5 11.25C12.5 10.8358 12.8358 10.5 13.25 10.5H15.25C15.6642 10.5 16 10.8358 16 11.25C16 11.6642 15.6642 12 15.25 12H14V13H14.5C15.3284 13 16 13.6716 16 14.5C16 15.3284 15.3284 16 14.5 16H13.5C12.6716 16 12 15.3284 12 14.5C12 14.0858 12.3358 13.75 12.75 13.75C13.1642 13.75 13.5 14.0858 13.5 14.5H14.5V13.5H13.25C12.8358 13.5 12.5 13.1642 12.5 12.75V11.25Z" fill="currentColor"/>
</svg>
