<svg viewBox="0 0 18 18" fill="none" xmlns="http://www.w3.org/2000/svg">
  <path d="M3 2.75C3 2.33579 3.33579 2 3.75 2C4.16421 2 4.5 2.33579 4.5 2.75V8.25H9V2.75C9 2.33579 9.33579 2 9.75 2C10.1642 2 10.5 2.33579 10.5 2.75V15.25C10.5 15.6642 10.1642 16 9.75 16C9.33579 16 9 15.6642 9 15.25V9.75H4.5V15.25C4.5 15.6642 4.16421 16 3.75 16C3.33579 16 3 15.6642 3 15.25V2.75Z" fill="currentColor"/>
  <path d="M12.5 15.25C12.5 14.8358 12.8358 14.5 13.25 14.5H15.25C15.6642 14.5 16 14.8358 16 15.25C16 15.6642 15.6642 16 15.25 16H13.25C12.8358 16 12.5 15.6642 12.5 15.25Z" fill="currentColor"/>
  <path d="M13 11.5C12.4477 11.5 12 11.9477 12 12.5V13.5H16V12.5C16 11.9477 15.5523 11.5 15 11.5H13Z" fill="currentColor"/>
</svg>
