<svg viewBox="0 0 18 18" fill="none" xmlns="http://www.w3.org/2000/svg">
  <path d="M3 2.75C3 2.33579 3.33579 2 3.75 2C4.16421 2 4.5 2.33579 4.5 2.75V8.25H9V2.75C9 2.33579 9.33579 2 9.75 2C10.1642 2 10.5 2.33579 10.5 2.75V15.25C10.5 15.6642 10.1642 16 9.75 16C9.33579 16 9 15.6642 9 15.25V9.75H4.5V15.25C4.5 15.6642 4.16421 16 3.75 16C3.33579 16 3 15.6642 3 15.25V2.75Z" fill="currentColor"/>
  <path d="M12.5 13C12.5 12.7239 12.7239 12.5 13 12.5H13.5V11.25C13.5 10.8358 13.8358 10.5 14.25 10.5C14.6642 10.5 15 10.8358 15 11.25V15.25C15 15.6642 14.6642 16 14.25 16C13.8358 16 13.5 15.6642 13.5 15.25V14H13C12.7239 14 12.5 13.7761 12.5 13.5V13Z" fill="currentColor"/>
</svg>
