<svg viewBox="0 0 18 18" fill="none" xmlns="http://www.w3.org/2000/svg">
  <path d="M4.5 3C3.67157 3 3 3.67157 3 4.5V13.5C3 14.3284 3.67157 15 4.5 15H13.5C14.3284 15 15 14.3284 15 13.5V4.5C15 3.67157 14.3284 3 13.5 3H4.5ZM6.75 6.75C6.75 7.57843 6.07843 8.25 5.25 8.25C4.42157 8.25 3.75 7.57843 3.75 6.75C3.75 5.92157 4.42157 5.25 5.25 5.25C6.07843 5.25 6.75 5.92157 6.75 6.75ZM10.9697 8.21967C11.2626 7.92678 11.7374 7.92678 12.0303 8.21967L15.5303 11.7197C15.8232 12.0126 15.8232 12.4874 15.5303 12.7803C15.2374 13.0732 14.7626 13.0732 14.4697 12.7803L11.5 9.81066L9.03033 12.2803C8.73744 12.5732 8.26256 12.5732 7.96967 12.2803L5.46967 9.78033C5.17678 9.48744 5.17678 9.01256 5.46967 8.71967C5.76256 8.42678 6.23744 8.42678 6.53033 8.71967L8.5 10.6893L10.9697 8.21967Z" fill="currentColor"/>
</svg>
