<svg viewBox="0 0 18 18" fill="none" xmlns="http://www.w3.org/2000/svg">
  <path d="M2 3.75C2 3.33579 2.33579 3 2.75 3H15.25C15.6642 3 16 3.33579 16 3.75C16 4.16421 15.6642 4.5 15.25 4.5H2.75C2.33579 4.5 2 4.16421 2 3.75Z" fill="currentColor"/>
  <path d="M2.75 7C2.33579 7 2 7.33579 2 7.75C2 8.16421 2.33579 8.5 2.75 8.5H15.25C15.6642 8.5 16 8.16421 16 7.75C16 7.33579 15.6642 7 15.25 7H2.75Z" fill="currentColor"/>
  <path d="M2 11.75C2 11.3358 2.33579 11 2.75 11H15.25C15.6642 11 16 11.3358 16 11.75C16 12.1642 15.6642 12.5 15.25 12.5H2.75C2.33579 12.5 2 12.1642 2 11.75Z" fill="currentColor"/>
  <path d="M2.21967 6.21967C2.51256 5.92678 2.98744 5.92678 3.28033 6.21967L5.28033 8.21967C5.57322 8.51256 5.57322 8.98744 5.28033 9.28033L3.28033 11.2803C2.98744 11.5732 2.51256 11.5732 2.21967 11.2803C1.92678 10.9874 1.92678 10.5126 2.21967 10.2197L3.43934 9L2.21967 7.78033C1.92678 7.48744 1.92678 7.01256 2.21967 6.21967Z" fill="currentColor"/>
</svg>
