<svg viewBox="0 0 18 18" fill="none" xmlns="http://www.w3.org/2000/svg">
  <path d="M8.25 5.25C8.25 4.83579 8.58579 4.5 9 4.5H11.25C12.9069 4.5 14.25 5.84315 14.25 7.5C14.25 9.15685 12.9069 10.5 11.25 10.5H9.75C9.33579 10.5 9 10.1642 9 9.75C9 9.33579 9.33579 9 9.75 9H11.25C12.0784 9 12.75 8.32843 12.75 7.5C12.75 6.67157 12.0784 6 11.25 6H9C8.58579 6 8.25 5.66421 8.25 5.25Z" fill="currentColor"/>
  <path d="M8.25 9C8.66421 9 9 8.66421 9 8.25C9 7.83579 8.66421 7.5 8.25 7.5H6.75C5.92157 7.5 5.25 8.17157 5.25 9C5.25 9.82843 5.92157 10.5 6.75 10.5H9C9.41421 10.5 9.75 10.8358 9.75 11.25C9.75 11.6642 9.41421 12 9 12H6.75C5.09315 12 3.75 10.6569 3.75 9C3.75 7.34315 5.09315 6 6.75 6H8.25C8.66421 6 9 6.33579 9 6.75C9 7.16421 8.66421 7.5 8.25 7.5V9Z" fill="currentColor"/>
</svg>
