<svg viewBox="0 0 18 18" fill="none" xmlns="http://www.w3.org/2000/svg">
  <path d="M3 4.5C3 3.67157 3.67157 3 4.5 3H5.25C6.07843 3 6.75 3.67157 6.75 4.5V5.25C6.75 6.07843 6.07843 6.75 5.25 6.75H4.5C3.67157 6.75 3 6.07843 3 5.25V4.5ZM4.5 4.5V5.25H5.25V4.5H4.5Z" fill="currentColor"/>
  <path d="M5.78033 9.96967C6.07322 10.2626 6.07322 10.7374 5.78033 11.0303L4.53033 12.2803C4.23744 12.5732 3.76256 12.5732 3.46967 12.2803L2.71967 11.5303C2.42678 11.2374 2.42678 10.7626 2.71967 10.4697C3.01256 10.1768 3.48744 10.1768 3.78033 10.4697L4 10.6893L4.71967 9.96967C5.01256 9.67678 5.48744 9.67678 5.78033 9.96967Z" fill="currentColor"/>
  <path d="M7.5 4.5C7.5 4.08579 7.83579 3.75 8.25 3.75H14.25C14.6642 3.75 15 4.08579 15 4.5C15 4.91421 14.6642 5.25 14.25 5.25H8.25C7.83579 5.25 7.5 4.91421 7.5 4.5Z" fill="currentColor"/>
  <path d="M7.5 10.875C7.5 10.4608 7.83579 10.125 8.25 10.125H14.25C14.6642 10.125 15 10.4608 15 10.875C15 11.2892 14.6642 11.625 14.25 11.625H8.25C7.83579 11.625 7.5 11.2892 7.5 10.875Z" fill="currentColor"/>
</svg>
