<svg viewBox="0 0 18 18" fill="none" xmlns="http://www.w3.org/2000/svg">
  <circle cx="4.5" cy="4.5" r="1.125" fill="currentColor"/>
  <circle cx="4.5" cy="9" r="1.125" fill="currentColor"/>
  <circle cx="4.5" cy="13.5" r="1.125" fill="currentColor"/>
  <path d="M7.5 4.5C7.5 4.08579 7.83579 3.75 8.25 3.75H14.25C14.6642 3.75 15 4.08579 15 4.5C15 4.91421 14.6642 5.25 14.25 5.25H8.25C7.83579 5.25 7.5 4.91421 7.5 4.5Z" fill="currentColor"/>
  <path d="M7.5 9C7.5 8.58579 7.83579 8.25 8.25 8.25H14.25C14.6642 8.25 15 8.58579 15 9C15 9.41421 14.6642 9.75 14.25 9.75H8.25C7.83579 9.75 7.5 9.41421 7.5 9Z" fill="currentColor"/>
  <path d="M7.5 13.5C7.5 13.0858 7.83579 12.75 8.25 12.75H14.25C14.6642 12.75 15 13.0858 15 13.5C15 13.9142 14.6642 14.25 14.25 14.25H8.25C7.83579 14.25 7.5 13.9142 7.5 13.5Z" fill="currentColor"/>
</svg>
