<svg viewBox="0 0 18 18" fill="none" xmlns="http://www.w3.org/2000/svg">
  <path d="M3.75 3.75C3.75 3.33579 4.08579 3 4.5 3H5.25C5.66421 3 6 3.33579 6 3.75V7.5C6 7.91421 5.66421 8.25 5.25 8.25C4.83579 8.25 4.5 7.91421 4.5 7.5V4.5H4.5C4.08579 4.5 3.75 4.16421 3.75 3.75Z" fill="currentColor"/>
  <path d="M3.75 11.25C3.75 10.8358 4.08579 10.5 4.5 10.5H5.25C5.66421 10.5 6 10.8358 6 11.25C6 11.6642 5.66421 12 5.25 12H5.25V12.75H5.25C5.66421 12.75 6 13.0858 6 13.5C6 13.9142 5.66421 14.25 5.25 14.25H4.5C4.08579 14.25 3.75 13.9142 3.75 13.5C3.75 13.0858 4.08579 12.75 4.5 12.75H4.5V12H4.5C4.08579 12 3.75 11.6642 3.75 11.25Z" fill="currentColor"/>
  <path d="M7.5 4.5C7.5 4.08579 7.83579 3.75 8.25 3.75H14.25C14.6642 3.75 15 4.08579 15 4.5C15 4.91421 14.6642 5.25 14.25 5.25H8.25C7.83579 5.25 7.5 4.91421 7.5 4.5Z" fill="currentColor"/>
  <path d="M7.5 9C7.5 8.58579 7.83579 8.25 8.25 8.25H14.25C14.6642 8.25 15 8.58579 15 9C15 9.41421 14.6642 9.75 14.25 9.75H8.25C7.83579 9.75 7.5 9.41421 7.5 9Z" fill="currentColor"/>
  <path d="M7.5 13.5C7.5 13.0858 7.83579 12.75 8.25 12.75H14.25C14.6642 12.75 15 13.0858 15 13.5C15 13.9142 14.6642 14.25 14.25 14.25H8.25C7.83579 14.25 7.5 13.9142 7.5 13.5Z" fill="currentColor"/>
</svg>
