<svg viewBox="0 0 18 18" fill="none" xmlns="http://www.w3.org/2000/svg">
  <path d="M3.75 9C3.33579 9 3 9.33579 3 9.75C3 10.1642 3.33579 10.5 3.75 10.5H14.25C14.6642 10.5 15 10.1642 15 9.75C15 9.33579 14.6642 9 14.25 9H3.75Z" fill="currentColor"/>
  <path d="M6.75 5.25C6.75 4.42157 7.42157 3.75 8.25 3.75H11.25C12.0784 3.75 12.75 4.42157 12.75 5.25C12.75 5.66421 13.0858 6 13.5 6C13.9142 6 14.25 5.66421 14.25 5.25C14.25 3.59315 12.9069 2.25 11.25 2.25H8.25C6.59315 2.25 5.25 3.59315 5.25 5.25C5.25 5.66421 5.58579 6 6 6C6.41421 6 6.75 5.66421 6.75 5.25Z" fill="currentColor"/>
  <path d="M11.25 12.75C11.25 13.5784 10.5784 14.25 9.75 14.25H6.75C5.92157 14.25 5.25 13.5784 5.25 12.75C5.25 12.3358 4.91421 12 4.5 12C4.08579 12 3.75 12.3358 3.75 12.75C3.75 14.4069 5.09315 15.75 6.75 15.75H9.75C11.4069 15.75 12.75 14.4069 12.75 12.75C12.75 12.3358 12.4142 12 12 12C11.5858 12 11.25 12.3358 11.25 12.75Z" fill="currentColor"/>
</svg>
