<svg viewBox="0 0 20 20" fill="currentColor" xmlns="http://www.w3.org/2000/svg">
<path d="M3.29289 4.29289C3.68342 3.90237 4.31658 3.90237 4.70711 4.29289L7.5 7.08579L10.2929 4.29289C10.6834 3.90237 11.3166 3.90237 11.7071 4.29289C12.0976 4.68342 12.0976 5.31658 11.7071 5.70711L8.91421 8.5L11.7071 11.2929C12.0976 11.6834 12.0976 12.3166 11.7071 12.7071C11.3166 13.0976 10.6834 13.0976 10.2929 12.7071L7.5 9.91421L4.70711 12.7071C4.31658 13.0976 3.68342 13.0976 3.29289 12.7071C2.90237 12.3166 2.90237 11.6834 3.29289 11.2929L6.08579 8.5L3.29289 5.70711C2.90237 5.31658 2.90237 4.68342 3.29289 4.29289Z"/>
<path d="M15 13.5C15 13.2239 14.7761 13 14.5 13H14V13.5C14 13.7761 13.7761 14 13.5 14C13.2239 14 13 13.7761 13 13.5V12.5C13 11.6716 13.6716 11 14.5 11C15.3284 11 16 11.6716 16 12.5C16 13.1531 15.5826 13.7087 15 13.9146V14.5C15 14.7761 15.2239 15 15.5 15H16.5C16.7761 15 17 15.2239 17 15.5C17 15.7761 16.7761 16 16.5 16H14.5C13.6716 16 13 15.3284 13 14.5V13.5H15Z"/>
</svg>
