<svg viewBox="0 0 18 18" fill="none" xmlns="http://www.w3.org/2000/svg">
  <path d="M2.96967 3.46967C3.26256 3.17678 3.73744 3.17678 4.03033 3.46967L6.5 5.93934L8.96967 3.46967C9.26256 3.17678 9.73744 3.17678 10.0303 3.46967C10.3232 3.76256 10.3232 4.23744 10.0303 4.53033L7.56066 7L10.0303 9.46967C10.3232 9.76256 10.3232 10.2374 10.0303 10.5303C9.73744 10.8232 9.26256 10.8232 8.96967 10.5303L6.5 8.06066L4.03033 10.5303C3.73744 10.8232 3.26256 10.8232 2.96967 10.5303C2.67678 10.2374 2.67678 9.76256 2.96967 9.46967L5.43934 7L2.96967 4.53033C2.67678 4.23744 2.67678 3.76256 2.96967 3.46967Z" fill="currentColor"/>
  <path d="M12.5 12C12.2239 12 12 12.2239 12 12.5C12 12.7761 12.2239 13 12.5 13H13V13.75C13 14.1642 13.3358 14.5 13.75 14.5C14.1642 14.5 14.5 14.1642 14.5 13.75V12.5C14.5 11.6716 13.8284 11 13 11H12.5C11.6716 11 11 11.6716 11 12.5V13C11 13.8284 11.6716 14.5 12.5 14.5H13.5C13.7761 14.5 14 14.7239 14 15C14 15.2761 13.7761 15.5 13.5 15.5H12.5C12.2239 15.5 12 15.7239 12 16C12 16.2761 12.2239 16.5 12.5 16.5H13.5C14.3284 16.5 15 15.8284 15 15V14.5C15 13.6716 14.3284 13 13.5 13H12.5V12.5V12Z" fill="currentColor"/>
</svg>
