<svg viewBox="0 0 20 20" fill="currentColor" xmlns="http://www.w3.org/2000/svg">
<path d="M3.29289 7.29289C3.68342 6.90237 4.31658 6.90237 4.70711 7.29289L7.5 10.0858L10.2929 7.29289C10.6834 6.90237 11.3166 6.90237 11.7071 7.29289C12.0976 7.68342 12.0976 8.31658 11.7071 8.70711L8.91421 11.5L11.7071 14.2929C12.0976 14.6834 12.0976 15.3166 11.7071 15.7071C11.3166 16.0976 10.6834 16.0976 10.2929 15.7071L7.5 12.9142L4.70711 15.7071C4.31658 16.0976 3.68342 16.0976 3.29289 15.7071C2.90237 15.3166 2.90237 14.6834 3.29289 14.2929L6.08579 11.5L3.29289 8.70711C2.90237 8.31658 2.90237 7.68342 3.29289 7.29289Z"/>
<path d="M15 3.5C15 3.22386 14.7761 3 14.5 3H14V3.5C14 3.77614 13.7761 4 13.5 4C13.2239 4 13 3.77614 13 3.5V2.5C13 1.67157 13.6716 1 14.5 1C15.3284 1 16 1.67157 16 2.5C16 3.15311 15.5826 3.70873 15 3.91459V4.5C15 4.77614 15.2239 5 15.5 5H16.5C16.7761 5 17 5.22386 17 5.5C17 5.77614 16.7761 6 16.5 6H14.5C13.6716 6 13 5.32843 13 4.5V3.5H15Z"/>
</svg>
