<svg viewBox="0 0 18 18" fill="none" xmlns="http://www.w3.org/2000/svg">
  <path d="M2.96967 6.46967C3.26256 6.17678 3.73744 6.17678 4.03033 6.46967L6.5 8.93934L8.96967 6.46967C9.26256 6.17678 9.73744 6.17678 10.0303 6.46967C10.3232 6.76256 10.3232 7.23744 10.0303 7.53033L7.56066 10L10.0303 12.4697C10.3232 12.7626 10.3232 13.2374 10.0303 13.5303C9.73744 13.8232 9.26256 13.8232 8.96967 13.5303L6.5 11.0607L4.03033 13.5303C3.73744 13.8232 3.26256 13.8232 2.96967 13.5303C2.67678 13.2374 2.67678 12.7626 2.96967 12.4697L5.43934 10L2.96967 7.53033C2.67678 7.23744 2.67678 6.76256 2.96967 6.46967Z" fill="currentColor"/>
  <path d="M12.5 2C12.2239 2 12 2.22386 12 2.5C12 2.77614 12.2239 3 12.5 3H13V3.75C13 4.16421 13.3358 4.5 13.75 4.5C14.1642 4.5 14.5 4.16421 14.5 3.75V2.5C14.5 1.67157 13.8284 1 13 1H12.5C11.6716 1 11 1.67157 11 2.5V3C11 3.82843 11.6716 4.5 12.5 4.5H13.5C13.7761 4.5 14 4.72386 14 5C14 5.27614 13.7761 5.5 13.5 5.5H12.5C12.2239 5.5 12 5.72386 12 6C12 6.27614 12.2239 6.5 12.5 6.5H13.5C14.3284 6.5 15 5.82843 15 5V4.5C15 3.67157 14.3284 3 13.5 3H12.5V2.5V2Z" fill="currentColor"/>
</svg>
