<svg viewBox="0 0 18 18" fill="none" xmlns="http://www.w3.org/2000/svg">
  <path d="M5.25 3.75C5.25 3.33579 5.58579 3 6 3C6.41421 3 6.75 3.33579 6.75 3.75V9C6.75 10.6569 8.09315 12 9.75 12C11.4069 12 12.75 10.6569 12.75 9V3.75C12.75 3.33579 13.0858 3 13.5 3C13.9142 3 14.25 3.33579 14.25 3.75V9C14.25 11.4853 12.2353 13.5 9.75 13.5C7.26472 13.5 5.25 11.4853 5.25 9V3.75Z" fill="currentColor"/>
  <path d="M4.5 15.75C4.5 15.3358 4.83579 15 5.25 15H14.25C14.6642 15 15 15.3358 15 15.75C15 16.1642 14.6642 16.5 14.25 16.5H5.25C4.83579 16.5 4.5 16.1642 4.5 15.75Z" fill="currentColor"/>
</svg>
